<?xml version="1.0" encoding="utf-8"?>
<!-- Generator: Adobe Illustrator 16.0.0, SVG Export Plug-In . SVG Version: 6.00 Build 0)  -->
<!DOCTYPE svg PUBLIC "-//W3C//DTD SVG 1.1//EN" "http://www.w3.org/Graphics/SVG/1.1/DTD/svg11.dtd">
<svg version="1.1" id="Layer_1" xmlns="http://www.w3.org/2000/svg" xmlns:xlink="http://www.w3.org/1999/xlink" x="0px" y="0px"
	 width="344.669px" height="570.93px" viewBox="0 0 344.669 570.93" enable-background="new 0 0 344.669 570.93"
	 xml:space="preserve">
<path fill="#E0E0E0" d="M0,362.952c0,21.681,35.819,37.444,70.085,37.444h204.499c34.267,0,70.085-15.764,70.085-37.444H0z"/>
<path fill="#E0E0E0" d="M45.682,407.594h253.305c0,11.293-9.154,16.368-20.447,16.368H66.13
	C54.837,423.962,45.682,418.887,45.682,407.594"/>
<path fill="#E0E0E0" d="M204.608,157.858v-25.525h-9.065V64.885c0-11.883-8.934-21.673-20.448-23.039V19.299l3.575-0.809
	l-3.765-3.415L186.548,0l-12.479,7.252V3.864h-3.883l-2.14,1.235l2.14,1.236v0.917L158.122,0l11.642,15.075L166,18.49l3.575,0.809
	v22.547c-11.515,1.366-20.448,11.156-20.448,23.039v67.448h-9.066v25.525c10.247-3.3,21.074-5.074,32.274-5.074
	S194.361,154.558,204.608,157.858 M185.173,69.962h6.031v49.317h-6.031V69.962z M180.635,119.279h-6.031V69.962h6.031V119.279z
	 M164.035,69.962h6.031v49.317h-6.031V69.962z M153.467,69.962h6.031v49.317h-6.031V69.962z"/>
<path fill="#E0E0E0" d="M102.711,273.515h31.911c0-77.843,26.834-112.897,26.834-112.897l-9.428,1.45
	C152.028,162.068,102.711,188.419,102.711,273.515"/>
<path fill="#E0E0E0" d="M138.731,164.244c0,0-71.8,31.911-71.8,109.271h21.758C88.689,197.122,138.731,164.244,138.731,164.244"/>
<path fill="#E0E0E0" d="M175.235,159.409h-5.802c0,0-22.483,20.307-22.483,114.106h50.768
	C197.719,179.716,175.235,159.409,175.235,159.409"/>
<path fill="#E0E0E0" d="M241.959,273.515c0-85.096-49.317-111.447-49.317-111.447l-9.428-1.45c0,0,26.834,35.054,26.834,112.897
	H241.959z"/>
<path fill="#E0E0E0" d="M255.98,273.515h21.757c0-77.36-71.799-109.271-71.799-109.271S255.98,197.122,255.98,273.515"/>
<path fill="#E0E0E0" d="M282.101,282.46H62.568c-7.684,0-14.025,4.947-15.112,12.329h249.756
	C296.126,287.407,289.784,282.46,282.101,282.46"/>
<path fill="#E0E0E0" d="M47.274,301.316v54.395h17.571v-36.458c0-5.133,4.161-9.295,9.295-9.295s9.296,4.162,9.296,9.295v36.458
	h28.33v-36.458c0-5.133,4.162-9.295,9.295-9.295c5.134,0,9.296,4.162,9.296,9.295v36.458h32.682v-36.458
	c0-5.133,4.161-9.295,9.295-9.295c5.134,0,9.295,4.162,9.295,9.295v36.458h32.682v-36.458c0-5.133,4.162-9.295,9.296-9.295
	c5.133,0,9.295,4.162,9.295,9.295v36.458h28.331v-36.458c0-5.133,4.161-9.295,9.295-9.295c5.135,0,9.295,4.162,9.295,9.295v36.458
	h17.571v-54.395H47.274z"/>
<path fill="#E0E0E0" d="M217.833,469.295c0.182,0.002,0.36,0.013,0.537,0.029v-0.016c7.001,0.634,8.832,3.648,8.832,3.648
	c0.342,0.664,9.688,10.635,9.688,10.635c7.522,8.863,33.966,4.543,33.966,4.543l72.263-5.983l0.006-3.442h-79.935
	c-1.941,0-3.517-1.684-3.517-3.761s1.575-3.761,3.517-3.761h79.946l0.006-3.76h-79.952c-1.941,0-3.517-1.684-3.517-3.762
	s1.575-3.761,3.517-3.761h79.952l-0.006-3.761h-79.946c-1.941,0-3.517-1.684-3.517-3.762c0-2.076,1.575-3.76,3.517-3.76h79.935
	l-0.006-3.666l-72.263-5.982c0,0-26.443-4.32-33.966,4.543c0,0-9.346,9.97-9.688,10.635c0,0-1.954,3.217-9.541,3.703
	c-5.032,0.079-121.828,1.773-178.596-11.614c0,0-39.096-15.542-38.067,17.382c-1.177,32.732,38.067,17.282,38.067,17.282
	C97.09,467.222,217.833,469.295,217.833,469.295"/>
<path fill="#E0E0E0" d="M73.866,570.908l-0.069-0.003c0,0-0.064,0.021-0.34,0.01c-0.259,0.005-0.517,0.015-0.776,0.015
	c-2.719,0-5.373-0.273-7.941-0.786c-13.657-1.726-39.618-7.108-56.327-24.3c-2.113-1.938-3.916-3.893-5.197-6.342
	c-0.131-0.183-0.109-0.255-0.237-0.438L2.92,538.92c-1.185-2.476-1.85-5.248-1.85-8.176c0-2.855,0.635-5.561,1.765-7.988
	l-0.014-0.004c0.015-0.023,0.031-0.043,0.046-0.064c1.437-3.051,3.634-6.245,6.317-8.26c19.325-16.035,39.66-21.064,53.663-23.166
	c4.177-0.652,6.484-0.922,9.834-0.922c0.408,0,0.815,0.012,1.22,0.023c0.346-0.018,0.531-0.023,0.531-0.023l-0.035,0.039
	c15.872,0.666,29.367,10.512,35.319,24.366c1.559,3.183,5.568,10.175,10.706,10.196c0,0,123.951,2.189,183.518-12.264
	c0,0,40.136-16.416,39.078,18.358c1.207,34.572-39.078,18.254-39.078,18.254c-59.566-14.454-183.518-12.264-183.518-12.264
	c-6.651,0.026-11.377,10.952-11.377,10.952l-0.404,0.805C102.233,561.777,89.225,570.463,73.866,570.908"/>
</svg>
